<svg width="25" height="26" viewBox="0 0 25 26" fill="none" xmlns="http://www.w3.org/2000/svg">
<path fill-rule="evenodd" clip-rule="evenodd" d="M12.5 0C13.0753 0 13.5417 0.485025 13.5417 1.08333V11.9167H23.9583C24.5336 11.9167 25 12.4017 25 13C25 13.5983 24.5336 14.0833 23.9583 14.0833H13.5417V24.9167C13.5417 25.515 13.0753 26 12.5 26C11.9247 26 11.4583 25.515 11.4583 24.9167V14.0833H1.04167C0.46637 14.0833 0 13.5983 0 13C0 12.4017 0.46637 11.9167 1.04167 11.9167H11.4583V1.08333C11.4583 0.485025 11.9247 0 12.5 0Z" fill="currentColor"/>
</svg>
