<svg width="905" height="587" viewBox="0 0 905 587" fill="none" xmlns="http://www.w3.org/2000/svg" preserveAspectRatio="none">
<g filter="url(#filter0_d_2_32)">
<path fill-rule="evenodd" clip-rule="evenodd" d="M30 1H24C13.5066 1 5 9.50659 5 20V529C5 556.062 26.9381 578 54 578H851C878.062 578 900 556.062 900 529V20C900 9.50659 891.493 1 881 1H874C863.507 1 855 9.50659 855 20V485C855 513.167 832.167 536 804 536H100C71.8335 536 49 513.167 49 485V20C49 9.50659 40.4934 1 30 1ZM30 0C41.0457 0 50 8.95431 50 20V485C50 512.614 72.3857 535 100 535H804C831.614 535 854 512.614 854 485V20C854 8.95431 862.954 0 874 0H881C892.046 0 901 8.95431 901 20V529C901 556.614 878.614 579 851 579H54C26.3858 579 4 556.614 4 529V20C4 8.95431 12.9543 0 24 0H30Z" fill="#4A8BDF"/>
</g>
<defs>
<filter id="filter0_d_2_32" x="0" y="0" width="905" height="587" filterUnits="userSpaceOnUse" color-interpolation-filters="sRGB">
<feFlood flood-opacity="0" result="BackgroundImageFix"/>
<feColorMatrix in="SourceAlpha" type="matrix" values="0 0 0 0 0 0 0 0 0 0 0 0 0 0 0 0 0 0 127 0" result="hardAlpha"/>
<feOffset dy="4"/>
<feGaussianBlur stdDeviation="2"/>
<feComposite in2="hardAlpha" operator="out"/>
<feColorMatrix type="matrix" values="0 0 0 0 0 0 0 0 0 0 0 0 0 0 0 0 0 0 0.25 0"/>
<feBlend mode="normal" in2="BackgroundImageFix" result="effect1_dropShadow_2_32"/>
<feBlend mode="normal" in="SourceGraphic" in2="effect1_dropShadow_2_32" result="shape"/>
</filter>
</defs>
</svg>
